<?xml version="1.0" encoding="utf-8"?>
<!-- Generator: Adobe Illustrator 16.0.0, SVG Export Plug-In . SVG Version: 6.00 Build 0)  -->
<!DOCTYPE svg PUBLIC "-//W3C//DTD SVG 1.1//EN" "http://www.w3.org/Graphics/SVG/1.1/DTD/svg11.dtd">
<svg version="1.1" id="Layer_1" xmlns="http://www.w3.org/2000/svg" xmlns:xlink="http://www.w3.org/1999/xlink" x="0px" y="0px"
	 width="249.25px" height="31.25px" viewBox="0 0 249.25 31.25" enable-background="new 0 0 249.25 31.25" xml:space="preserve">
<g>
	<g>
		<g>
			<path fill="#FFFFFF" d="M97.46,12.159c0,0.248-0.05,0.495-0.1,0.72l-0.025,0.024c0,0.049-0.024,0.099-0.049,0.124
				c0,0.049-0.024,0.073-0.024,0.099L97.187,13.3c-0.024,0.024-0.024,0.049-0.024,0.049c-0.025,0.025-0.025,0.05-0.05,0.05
				c-0.348,0.62-0.942,1.066-1.661,1.215c-0.174,0.05-0.348,0.05-0.521,0.05H91.46v11.953c0,1.39-1.115,2.504-2.505,2.504
				c-1.389,0-2.504-1.114-2.504-2.504V14.663h-1.538c-1.389,0-2.504-1.115-2.504-2.504c0-1.389,1.116-2.505,2.504-2.505h1.538V8.34
				c0-0.743-0.05-3.471,2.008-5.454c1.612-1.563,3.918-2.158,6.869-1.762h0.024c0.025,0,0.05,0,0.074,0
				c1.216,0.174,2.158,1.215,2.158,2.48c0,1.389-1.116,2.529-2.506,2.529c-0.123,0-0.223-0.025-0.322-0.025h-0.024
				c-1.313-0.174-2.281-0.024-2.776,0.396C91.41,6.951,91.46,8.24,91.46,8.24v1.413h3.471C96.318,9.655,97.46,10.771,97.46,12.159z"
				/>
			<path fill="#FFFFFF" d="M110.585,29.245h-0.074c-0.57,0.074-1.141,0.123-1.661,0.123c-2.183,0-3.918-0.645-5.232-1.883
				c-2.058-1.984-2.058-4.713-2.008-5.457V3.753c0-1.39,1.141-2.504,2.529-2.504c1.388,0,2.504,1.114,2.504,2.504v18.523
				l-0.025,0.074c0,0.297,0.075,1.117,0.496,1.514c0.471,0.445,1.463,0.57,2.803,0.396c0.1,0,0.223-0.025,0.347-0.025
				c1.389,0,2.505,1.141,2.505,2.529C112.768,28.028,111.825,29.071,110.585,29.245z"/>
			<path fill="#FFFFFF" d="M116.194,3.803c0-1.389,1.142-2.529,2.53-2.529s2.504,1.141,2.504,2.529s-1.115,2.504-2.504,2.504
				S116.194,5.191,116.194,3.803z M121.228,11.415v15.201c0,1.389-1.115,2.504-2.504,2.504s-2.53-1.115-2.53-2.504V11.415
				c0-1.389,1.142-2.504,2.53-2.504S121.228,10.027,121.228,11.415z"/>
			<path fill="#FFFFFF" d="M142.109,28.202c-0.025,0.025-0.051,0.051-0.074,0.076c-0.025,0.049-0.051,0.074-0.075,0.098
				l-0.147,0.125c0,0-0.024,0.023-0.051,0.049c-0.024,0-0.024,0.025-0.049,0.049c-0.051,0.025-0.1,0.052-0.124,0.076
				c-0.024,0.025-0.05,0.049-0.075,0.049c-0.049,0.025-0.099,0.05-0.123,0.074c-0.024,0.025-0.051,0.025-0.1,0.051
				c-0.025,0.023-0.074,0.05-0.124,0.072c-0.024,0-0.05,0-0.073,0.025c-0.051,0.025-0.101,0.025-0.15,0.051
				c-0.024,0-0.049,0.025-0.073,0.025c-0.049,0.023-0.101,0.023-0.147,0.023c-0.025,0.024-0.051,0.024-0.074,0.024
				c-0.075,0.024-0.125,0.024-0.174,0.024c-0.025,0-0.051,0-0.074,0.023h-0.223c-0.101,0-0.175,0-0.25,0c0,0-0.023,0-0.023-0.023
				c-0.074,0-0.149,0-0.225-0.024h-0.023c-0.074-0.024-0.148-0.024-0.199-0.049c-0.023,0-0.049-0.025-0.049-0.025l-0.199-0.075
				c-0.023,0-0.023,0-0.049,0l-0.174-0.099c-0.025,0-0.025,0-0.025,0c-0.148-0.074-0.271-0.174-0.371-0.272h-0.025
				c-0.049-0.05-0.123-0.101-0.172-0.148c0-0.025,0-0.025-0.024-0.025l-0.125-0.147l-0.024-0.025l-4.313-5.207l-4.339,5.207v0.025
				l-0.149,0.147c0,0-0.024,0-0.024,0.025l-0.147,0.148c-0.024,0-0.024,0-0.024,0c-0.125,0.1-0.248,0.198-0.373,0.272h-0.023
				c-0.074,0.024-0.125,0.074-0.199,0.099h-0.023c-0.074,0.024-0.125,0.051-0.198,0.075c-0.025,0-0.025,0.025-0.05,0.025
				l-0.198,0.049c-0.025,0-0.025,0-0.05,0c-0.074,0.024-0.149,0.024-0.198,0.024l-0.024,0.023c-0.101,0-0.174,0-0.248,0h-0.248
				c-0.023-0.023-0.05-0.023-0.074-0.023c-0.049,0-0.1,0-0.148-0.024c-0.023,0-0.049,0-0.1-0.024c-0.049,0-0.074,0-0.123-0.023
				l-0.101-0.025c-0.049-0.025-0.073-0.025-0.124-0.051c-0.023-0.025-0.074-0.025-0.099-0.025c-0.024-0.022-0.074-0.049-0.124-0.072
				l-0.075-0.051c-0.049-0.024-0.098-0.049-0.123-0.074c-0.024,0-0.051-0.022-0.073-0.049c-0.052-0.024-0.101-0.051-0.149-0.1
				c0,0-0.024-0.025-0.05-0.025c-0.024-0.024-0.049-0.049-0.049-0.074c-0.052-0.024-0.101-0.049-0.125-0.1l-0.101-0.098
				c-0.022-0.025-0.049-0.051-0.073-0.076l-0.074-0.123c-0.024-0.025-0.049-0.051-0.074-0.074c-0.024-0.051-0.049-0.074-0.049-0.125
				l-0.074-0.1c0-0.023-0.025-0.074-0.051-0.098l-0.049-0.125c0-0.023-0.024-0.072-0.024-0.098c-0.025-0.052-0.05-0.101-0.05-0.125
				c-0.025-0.05-0.025-0.074-0.025-0.101c-0.025-0.05-0.025-0.099-0.049-0.147v-0.123c-0.025-0.024-0.025-0.076-0.025-0.125v-0.174
				c0-0.023,0-0.049,0-0.049c0-0.1,0-0.174,0-0.273V26.32c0.025-0.074,0.025-0.149,0.049-0.199c0-0.049,0-0.073,0.025-0.1
				c0-0.05,0-0.101,0.025-0.148c0-0.051,0.023-0.073,0.05-0.125l0.024-0.098c0.024-0.052,0.049-0.101,0.073-0.125
				c0-0.05,0.025-0.074,0.05-0.101c0.024-0.074,0.051-0.123,0.1-0.172c0-0.024,0-0.024,0.025-0.051l0.147-0.197l4.935-5.928
				l-4.935-5.951c-0.371-0.421-0.57-0.992-0.57-1.612c0-1.388,1.115-2.504,2.505-2.504c0.77,0,1.463,0.347,1.936,0.917l4.339,5.209
				l4.313-5.209h0.024c0.446-0.57,1.142-0.917,1.937-0.917c1.389,0,2.504,1.116,2.504,2.504c0,0.62-0.226,1.191-0.57,1.612
				l-4.936,5.951l4.936,5.928c0.049,0.074,0.1,0.123,0.148,0.197c0,0.025,0.023,0.025,0.023,0.051
				c0.023,0.049,0.075,0.098,0.1,0.172c0.024,0.025,0.024,0.051,0.051,0.101c0.022,0.024,0.022,0.073,0.049,0.125
				c0.025,0.022,0.025,0.073,0.051,0.098c0,0.052,0.023,0.074,0.049,0.125c0,0.05,0.025,0.074,0.025,0.125
				c0,0.05,0.025,0.074,0.025,0.123c0.022,0.05,0.022,0.125,0.022,0.175c0,0.024,0,0.049,0.024,0.049v0.248v0.024v0.074
				c0,0.049,0,0.1,0,0.147c-0.024,0.049-0.024,0.101-0.024,0.148l-0.022,0.1c0,0.051-0.025,0.101-0.025,0.148
				c-0.025,0.025-0.025,0.051-0.025,0.1l-0.049,0.125c-0.025,0.025-0.025,0.074-0.051,0.098c0,0.052-0.025,0.074-0.049,0.125
				c0,0.023-0.025,0.074-0.051,0.099c-0.023,0.024-0.023,0.076-0.05,0.101l-0.073,0.125c-0.025,0.022-0.05,0.049-0.074,0.073
				L142.109,28.202z"/>
			<path fill="#FFFFFF" d="M162.168,23.146c0,3.52-2.752,6.396-7.463,6.396c-2.703,0-4.91-0.793-7.092-2.182
				c-0.844-0.422-1.414-1.267-1.414-2.281c0-1.389,1.115-2.506,2.504-2.506c0.496,0,0.969,0.149,1.365,0.397h0.025
				c1.387,0.916,2.752,1.562,4.61,1.562c1.114,0,2.431-0.271,2.431-1.387c0-0.125-0.025-0.199-0.025-0.226
				c-0.297-0.793-2.826-1.363-3.646-1.537c-3.595-0.817-6.67-2.604-6.67-6.297v-0.025v-0.024c0-5.506,5.556-7.563,10.786-5.752
				c0.843,0.297,1.637,0.669,2.355,1.04c0.817,0.422,1.363,1.266,1.363,2.232c0,1.39-1.115,2.529-2.505,2.529h-0.024
				c-0.049,0-0.123-0.025-0.197-0.025c-0.322-0.024-0.62-0.099-0.893-0.247c-0.968-0.396-1.983-1.116-3.744-1.116
				c-2.01,0-2.135,0.67-2.135,1.389c0,0.1,0.025,0.124,0.025,0.149c0.148,0.371,1.018,0.745,1.414,0.868
				C154.879,16.698,162.168,17.366,162.168,23.146z"/>
			<path fill="#FFFFFF" d="M178.164,28.972v0.022h-0.1h-0.024c-5.704,0.795-8.878-2.479-8.878-7.141v-8.554h-1.537
				c-1.389,0-2.504-1.141-2.504-2.529c0-1.388,1.115-2.505,2.504-2.505h1.537V3.504c0-1.389,1.115-2.504,2.505-2.504
				s2.505,1.115,2.505,2.504v4.761h3.471c1.39,0,2.529,1.116,2.529,2.505c0,1.389-1.141,2.529-2.529,2.529h-3.471v8.704
				c0,1.959,1.289,2.307,3.248,2.01c0.124-0.025,0.248-0.025,0.371-0.025c1.391,0,2.506,1.115,2.506,2.504
				C180.297,27.757,179.379,28.798,178.164,28.972z"/>
			<path fill="#FFFFFF" d="M204.196,26.69c0,1.389-1.14,2.506-2.53,2.506c-1.165,0-2.156-0.82-2.43-1.91
				c-1.834,1.463-4.041,2.182-6.223,2.182h-0.025c-4.166,0-7.811-2.58-9.373-6.348c-2.803-6.795,2.082-14.408,9.373-14.408
				c0.025,0,0.025,0,0.025,0c2.256,0,4.412,0.769,6.197,2.158c0.271-1.116,1.266-1.959,2.454-1.959c1.392,0,2.53,1.141,2.53,2.528
				L204.196,26.69L204.196,26.69z M197.253,16.077c-0.942-1.414-2.505-2.331-4.265-2.331c-2.852,0-5.135,2.405-5.135,5.356
				c0,2.952,2.309,5.333,5.135,5.333C197.129,24.435,199.584,19.624,197.253,16.077z"/>
			<path fill="#FFFFFF" d="M224.84,23.146c0,3.52-2.754,6.396-7.464,6.396c-2.704,0-4.909-0.793-7.093-2.182
				c-0.844-0.422-1.414-1.267-1.414-2.281c0-1.389,1.117-2.506,2.506-2.506c0.495,0,0.967,0.149,1.363,0.397h0.023
				c1.391,0.916,2.754,1.562,4.613,1.562c1.116,0,2.43-0.271,2.43-1.387c0-0.125-0.023-0.199-0.023-0.226
				c-0.299-0.793-2.828-1.363-3.646-1.537c-3.595-0.817-6.669-2.604-6.669-6.297v-0.025v-0.024c0-5.506,5.554-7.563,10.786-5.752
				c0.844,0.297,1.637,0.669,2.355,1.04c0.818,0.422,1.363,1.266,1.363,2.232c0,1.39-1.115,2.529-2.504,2.529h-0.025
				c-0.049,0-0.123-0.025-0.197-0.025c-0.322-0.024-0.619-0.099-0.893-0.247c-0.967-0.396-1.984-1.116-3.744-1.116
				c-2.008,0-2.133,0.67-2.133,1.389c0,0.1,0.023,0.124,0.023,0.149c0.148,0.371,1.018,0.745,1.413,0.868
				C217.55,16.698,224.84,17.366,224.84,23.146z"/>
			<path fill="#FFFFFF" d="M244.688,29.12c-1.39,0-2.53-1.115-2.53-2.504v-9.002c0-4.413-6.272-5.43-7.983-1.512
				c-0.198,0.471-0.321,0.967-0.321,1.512v8.977v0.025c0,1.389-1.116,2.504-2.506,2.504c-1.389,0-2.504-1.115-2.504-2.504v-0.025
				V3.803c0-1.39,1.115-2.529,2.504-2.529c1.39,0,2.506,1.14,2.506,2.529v5.803c6.074-3.026,13.314,1.265,13.34,7.985v0.023v9.002
				C247.192,28.005,246.052,29.12,244.688,29.12z"/>
		</g>
		<g>
			<path fill="#FFFFFF" d="M97.46,12.159c0,0.248-0.05,0.495-0.1,0.72l-0.025,0.024c0,0.049-0.024,0.099-0.049,0.124
				c0,0.049-0.024,0.073-0.024,0.099L97.187,13.3c-0.024,0.024-0.024,0.049-0.024,0.049c-0.025,0.025-0.025,0.05-0.05,0.05
				c-0.348,0.62-0.942,1.066-1.661,1.215c-0.174,0.05-0.348,0.05-0.521,0.05H91.46v11.953c0,1.39-1.115,2.504-2.505,2.504
				c-1.389,0-2.504-1.114-2.504-2.504V14.663h-1.538c-1.389,0-2.504-1.115-2.504-2.504c0-1.389,1.116-2.505,2.504-2.505h1.538V8.34
				c0-0.743-0.05-3.471,2.008-5.454c1.612-1.563,3.918-2.158,6.869-1.762h0.024c0.025,0,0.05,0,0.074,0
				c1.216,0.174,2.158,1.215,2.158,2.48c0,1.389-1.116,2.529-2.506,2.529c-0.123,0-0.223-0.025-0.322-0.025h-0.024
				c-1.313-0.174-2.281-0.024-2.776,0.396C91.41,6.951,91.46,8.24,91.46,8.24v1.413h3.471C96.318,9.655,97.46,10.771,97.46,12.159z"
				/>
			<path fill="#FFFFFF" d="M110.585,29.245h-0.074c-0.57,0.074-1.141,0.123-1.661,0.123c-2.183,0-3.918-0.645-5.232-1.883
				c-2.058-1.984-2.058-4.713-2.008-5.457V3.753c0-1.39,1.141-2.504,2.529-2.504c1.388,0,2.504,1.114,2.504,2.504v18.523
				l-0.025,0.074c0,0.297,0.075,1.117,0.496,1.514c0.471,0.445,1.463,0.57,2.803,0.396c0.1,0,0.223-0.025,0.347-0.025
				c1.389,0,2.505,1.141,2.505,2.529C112.768,28.028,111.825,29.071,110.585,29.245z"/>
			<path fill="#FFFFFF" d="M116.194,3.803c0-1.389,1.142-2.529,2.53-2.529s2.504,1.141,2.504,2.529s-1.115,2.504-2.504,2.504
				S116.194,5.191,116.194,3.803z M121.228,11.415v15.201c0,1.389-1.115,2.504-2.504,2.504s-2.53-1.115-2.53-2.504V11.415
				c0-1.389,1.142-2.504,2.53-2.504S121.228,10.027,121.228,11.415z"/>
			<path fill="#FFFFFF" d="M142.109,28.202c-0.025,0.025-0.051,0.051-0.074,0.076c-0.025,0.049-0.051,0.074-0.075,0.098
				l-0.147,0.125c0,0-0.024,0.023-0.051,0.049c-0.024,0-0.024,0.025-0.049,0.049c-0.051,0.025-0.1,0.052-0.124,0.076
				c-0.024,0.025-0.05,0.049-0.075,0.049c-0.049,0.025-0.099,0.05-0.123,0.074c-0.024,0.025-0.051,0.025-0.1,0.051
				c-0.025,0.023-0.074,0.05-0.124,0.072c-0.024,0-0.05,0-0.073,0.025c-0.051,0.025-0.101,0.025-0.15,0.051
				c-0.024,0-0.049,0.025-0.073,0.025c-0.049,0.023-0.101,0.023-0.147,0.023c-0.025,0.024-0.051,0.024-0.074,0.024
				c-0.075,0.024-0.125,0.024-0.174,0.024c-0.025,0-0.051,0-0.074,0.023h-0.223c-0.101,0-0.175,0-0.25,0c0,0-0.023,0-0.023-0.023
				c-0.074,0-0.149,0-0.225-0.024h-0.023c-0.074-0.024-0.148-0.024-0.199-0.049c-0.023,0-0.049-0.025-0.049-0.025l-0.199-0.075
				c-0.023,0-0.023,0-0.049,0l-0.174-0.099c-0.025,0-0.025,0-0.025,0c-0.148-0.074-0.271-0.174-0.371-0.272h-0.025
				c-0.049-0.05-0.123-0.101-0.172-0.148c0-0.025,0-0.025-0.024-0.025l-0.125-0.147l-0.024-0.025l-4.313-5.207l-4.339,5.207v0.025
				l-0.149,0.147c0,0-0.024,0-0.024,0.025l-0.147,0.148c-0.024,0-0.024,0-0.024,0c-0.125,0.1-0.248,0.198-0.373,0.272h-0.023
				c-0.074,0.024-0.125,0.074-0.199,0.099h-0.023c-0.074,0.024-0.125,0.051-0.198,0.075c-0.025,0-0.025,0.025-0.05,0.025
				l-0.198,0.049c-0.025,0-0.025,0-0.05,0c-0.074,0.024-0.149,0.024-0.198,0.024l-0.024,0.023c-0.101,0-0.174,0-0.248,0h-0.248
				c-0.023-0.023-0.05-0.023-0.074-0.023c-0.049,0-0.1,0-0.148-0.024c-0.023,0-0.049,0-0.1-0.024c-0.049,0-0.074,0-0.123-0.023
				l-0.101-0.025c-0.049-0.025-0.073-0.025-0.124-0.051c-0.023-0.025-0.074-0.025-0.099-0.025c-0.024-0.022-0.074-0.049-0.124-0.072
				l-0.075-0.051c-0.049-0.024-0.098-0.049-0.123-0.074c-0.024,0-0.051-0.022-0.073-0.049c-0.052-0.024-0.101-0.051-0.149-0.1
				c0,0-0.024-0.025-0.05-0.025c-0.024-0.024-0.049-0.049-0.049-0.074c-0.052-0.024-0.101-0.049-0.125-0.1l-0.101-0.098
				c-0.022-0.025-0.049-0.051-0.073-0.076l-0.074-0.123c-0.024-0.025-0.049-0.051-0.074-0.074c-0.024-0.051-0.049-0.074-0.049-0.125
				l-0.074-0.1c0-0.023-0.025-0.074-0.051-0.098l-0.049-0.125c0-0.023-0.024-0.072-0.024-0.098c-0.025-0.052-0.05-0.101-0.05-0.125
				c-0.025-0.05-0.025-0.074-0.025-0.101c-0.025-0.05-0.025-0.099-0.049-0.147v-0.123c-0.025-0.024-0.025-0.076-0.025-0.125v-0.174
				c0-0.023,0-0.049,0-0.049c0-0.1,0-0.174,0-0.273V26.32c0.025-0.074,0.025-0.149,0.049-0.199c0-0.049,0-0.073,0.025-0.1
				c0-0.05,0-0.101,0.025-0.148c0-0.051,0.023-0.073,0.05-0.125l0.024-0.098c0.024-0.052,0.049-0.101,0.073-0.125
				c0-0.05,0.025-0.074,0.05-0.101c0.024-0.074,0.051-0.123,0.1-0.172c0-0.024,0-0.024,0.025-0.051l0.147-0.197l4.935-5.928
				l-4.935-5.951c-0.371-0.421-0.57-0.992-0.57-1.612c0-1.388,1.115-2.504,2.505-2.504c0.77,0,1.463,0.347,1.936,0.917l4.339,5.209
				l4.313-5.209h0.024c0.446-0.57,1.142-0.917,1.937-0.917c1.389,0,2.504,1.116,2.504,2.504c0,0.62-0.226,1.191-0.57,1.612
				l-4.936,5.951l4.936,5.928c0.049,0.074,0.1,0.123,0.148,0.197c0,0.025,0.023,0.025,0.023,0.051
				c0.023,0.049,0.075,0.098,0.1,0.172c0.024,0.025,0.024,0.051,0.051,0.101c0.022,0.024,0.022,0.073,0.049,0.125
				c0.025,0.022,0.025,0.073,0.051,0.098c0,0.052,0.023,0.074,0.049,0.125c0,0.05,0.025,0.074,0.025,0.125
				c0,0.05,0.025,0.074,0.025,0.123c0.022,0.05,0.022,0.125,0.022,0.175c0,0.024,0,0.049,0.024,0.049v0.248v0.024v0.074
				c0,0.049,0,0.1,0,0.147c-0.024,0.049-0.024,0.101-0.024,0.148l-0.022,0.1c0,0.051-0.025,0.101-0.025,0.148
				c-0.025,0.025-0.025,0.051-0.025,0.1l-0.049,0.125c-0.025,0.025-0.025,0.074-0.051,0.098c0,0.052-0.025,0.074-0.049,0.125
				c0,0.023-0.025,0.074-0.051,0.099c-0.023,0.024-0.023,0.076-0.05,0.101l-0.073,0.125c-0.025,0.022-0.05,0.049-0.074,0.073
				L142.109,28.202z"/>
			<path fill="#FFFFFF" d="M162.168,23.146c0,3.52-2.752,6.396-7.463,6.396c-2.703,0-4.91-0.793-7.092-2.182
				c-0.844-0.422-1.414-1.267-1.414-2.281c0-1.389,1.115-2.506,2.504-2.506c0.496,0,0.969,0.149,1.365,0.397h0.025
				c1.387,0.916,2.752,1.562,4.61,1.562c1.114,0,2.431-0.271,2.431-1.387c0-0.125-0.025-0.199-0.025-0.226
				c-0.297-0.793-2.826-1.363-3.646-1.537c-3.595-0.817-6.67-2.604-6.67-6.297v-0.025v-0.024c0-5.506,5.556-7.563,10.786-5.752
				c0.843,0.297,1.637,0.669,2.355,1.04c0.817,0.422,1.363,1.266,1.363,2.232c0,1.39-1.115,2.529-2.505,2.529h-0.024
				c-0.049,0-0.123-0.025-0.197-0.025c-0.322-0.024-0.62-0.099-0.893-0.247c-0.968-0.396-1.983-1.116-3.744-1.116
				c-2.01,0-2.135,0.67-2.135,1.389c0,0.1,0.025,0.124,0.025,0.149c0.148,0.371,1.018,0.745,1.414,0.868
				C154.879,16.698,162.168,17.366,162.168,23.146z"/>
			<path fill="#FFFFFF" d="M178.164,28.972v0.022h-0.1h-0.024c-5.704,0.795-8.878-2.479-8.878-7.141v-8.554h-1.537
				c-1.389,0-2.504-1.141-2.504-2.529c0-1.388,1.115-2.505,2.504-2.505h1.537V3.504c0-1.389,1.115-2.504,2.505-2.504
				s2.505,1.115,2.505,2.504v4.761h3.471c1.39,0,2.529,1.116,2.529,2.505c0,1.389-1.141,2.529-2.529,2.529h-3.471v8.704
				c0,1.959,1.289,2.307,3.248,2.01c0.124-0.025,0.248-0.025,0.371-0.025c1.391,0,2.506,1.115,2.506,2.504
				C180.297,27.757,179.379,28.798,178.164,28.972z"/>
			<path fill="#FFFFFF" d="M204.196,26.69c0,1.389-1.14,2.506-2.53,2.506c-1.165,0-2.156-0.82-2.43-1.91
				c-1.834,1.463-4.041,2.182-6.223,2.182h-0.025c-4.166,0-7.811-2.58-9.373-6.348c-2.803-6.795,2.082-14.408,9.373-14.408
				c0.025,0,0.025,0,0.025,0c2.256,0,4.412,0.769,6.197,2.158c0.271-1.116,1.266-1.959,2.454-1.959c1.392,0,2.53,1.141,2.53,2.528
				L204.196,26.69L204.196,26.69z M197.253,16.077c-0.942-1.414-2.505-2.331-4.265-2.331c-2.852,0-5.135,2.405-5.135,5.356
				c0,2.952,2.309,5.333,5.135,5.333C197.129,24.435,199.584,19.624,197.253,16.077z"/>
			<path fill="#FFFFFF" d="M224.84,23.146c0,3.52-2.754,6.396-7.464,6.396c-2.704,0-4.909-0.793-7.093-2.182
				c-0.844-0.422-1.414-1.267-1.414-2.281c0-1.389,1.117-2.506,2.506-2.506c0.495,0,0.967,0.149,1.363,0.397h0.023
				c1.391,0.916,2.754,1.562,4.613,1.562c1.116,0,2.43-0.271,2.43-1.387c0-0.125-0.023-0.199-0.023-0.226
				c-0.299-0.793-2.828-1.363-3.646-1.537c-3.595-0.817-6.669-2.604-6.669-6.297v-0.025v-0.024c0-5.506,5.554-7.563,10.786-5.752
				c0.844,0.297,1.637,0.669,2.355,1.04c0.818,0.422,1.363,1.266,1.363,2.232c0,1.39-1.115,2.529-2.504,2.529h-0.025
				c-0.049,0-0.123-0.025-0.197-0.025c-0.322-0.024-0.619-0.099-0.893-0.247c-0.967-0.396-1.984-1.116-3.744-1.116
				c-2.008,0-2.133,0.67-2.133,1.389c0,0.1,0.023,0.124,0.023,0.149c0.148,0.371,1.018,0.745,1.413,0.868
				C217.55,16.698,224.84,17.366,224.84,23.146z"/>
			<path fill="#FFFFFF" d="M244.688,29.12c-1.39,0-2.53-1.115-2.53-2.504v-9.002c0-4.413-6.272-5.43-7.983-1.512
				c-0.198,0.471-0.321,0.967-0.321,1.512v8.977v0.025c0,1.389-1.116,2.504-2.506,2.504c-1.389,0-2.504-1.115-2.504-2.504v-0.025
				V3.803c0-1.39,1.115-2.529,2.504-2.529c1.39,0,2.506,1.14,2.506,2.529v5.803c6.074-3.026,13.314,1.265,13.34,7.985v0.023v9.002
				C247.192,28.005,246.052,29.12,244.688,29.12z"/>
		</g>
	</g>
	<path fill="#ED4D50" d="M2,5.674c0-3.347,2.372-4.716,5.269-3.043l16.623,9.598c2.899,1.674,2.899,4.413,0,6.084L7.269,27.911
		C4.371,29.585,2,28.216,2,24.87V5.674z"/>
	<g>
		<path fill="#DEE46E" d="M33.419,25.296c0,1.504,1.208,2.742,2.715,2.74l23.65,0.002c1.506,0,2.715-1.211,2.715-2.715
			s-1.209-2.742-2.715-2.74h-23.65C34.627,22.581,33.419,23.792,33.419,25.296z"/>
		<path fill="#F1A879" d="M33.419,15.258c0,1.504,1.208,2.741,2.715,2.741h23.65c1.506,0,2.715-1.209,2.715-2.713
			c0-1.505-1.209-2.742-2.715-2.742l-23.651,0.001C34.627,12.543,33.419,13.753,33.419,15.258z"/>
		<path fill="#F27F80" d="M33.419,5.22c0,1.505,1.208,2.74,2.715,2.74l23.65,0.001c1.506,0,2.715-1.21,2.715-2.715
			c0-1.504-1.209-2.74-2.715-2.74H36.132C34.627,2.506,33.419,3.715,33.419,5.22z"/>
	</g>
</g>
</svg>
